<svg width="36" height="36" viewBox="0 0 36 36" fill="none" xmlns="http://www.w3.org/2000/svg">
<path d="M20.953 0.112499C17.4796 0.674999 15.2999 2.9039 14.646 6.57422C14.5616 7.0664 14.5264 7.89609 14.5053 10.35L14.4702 13.5H11.8757H9.28113V16.6992V19.8984H11.8827H14.4843V27.9492V36H17.7186H20.953V27.9492V19.8984H23.4491C24.8202 19.8984 25.9452 19.8773 25.9452 19.8562C25.9452 19.8352 26.121 18.4289 26.3319 16.7344C26.5428 15.0398 26.7186 13.6195 26.7186 13.5773C26.7186 13.5211 25.8468 13.5 23.8288 13.5H20.946L20.9671 10.6664C20.9882 8.16328 21.0022 7.80469 21.1147 7.52344C21.3889 6.82031 21.8038 6.43359 22.5491 6.1664C22.9147 6.03281 23.1608 6.01875 25.1225 5.99062L27.2811 5.9625V3.12187C27.2811 0.907028 27.26 0.267185 27.1968 0.246094C26.9577 0.168747 25.0944 0.0632782 23.4491 0.0351562C22.0218 0.00703049 21.4733 0.0281219 20.953 0.112499Z" fill="#48B74A"/>
</svg>
