<svg width="34" height="34" viewBox="0 0 34 34" fill="none" xmlns="http://www.w3.org/2000/svg">
<g clip-path="url(#clip0)">
<path d="M3.55957 0.586366C2.48788 0.81739 1.39051 1.67731 0.902792 2.66559C0.15838 4.1865 0.440743 5.97052 1.6087 7.18981C3.14886 8.79415 5.70938 8.79415 7.24313 7.18981C8.4175 5.9641 8.69345 4.19291 7.94262 2.672C7.6025 1.97893 6.85167 1.2281 6.17785 0.907233C5.33076 0.50294 4.44517 0.393846 3.55957 0.586366Z" fill="#48B74A"/>
<path d="M23.6842 10.9759C21.7013 11.3545 20.0135 12.4326 18.9739 13.992L18.6723 14.4413L18.653 12.9139L18.6402 11.393H15.3674H12.0945V22.3667V33.3403H15.4957H18.8969V27.5776C18.8969 23.9967 18.9226 21.5453 18.9675 21.0896C19.1857 18.7473 20.0584 17.4446 21.7013 17.0082C22.2853 16.8478 23.2735 16.8157 23.8254 16.9376C24.8843 17.1622 25.4747 17.6178 25.9239 18.5419C26.5015 19.7484 26.5335 20.1719 26.5335 27.3786V33.3403H29.9347H33.3359V26.7433C33.3359 22.9699 33.3103 19.7676 33.2718 19.2543C33.0536 16.2317 32.3926 14.3065 31.0963 12.9203C30.2235 11.9898 29.062 11.3866 27.5026 11.0593C26.6619 10.886 24.4287 10.8411 23.6842 10.9759Z" fill="#48B74A"/>
<path d="M1.03741 11.4379C1.01174 11.4572 0.992493 16.3985 0.992493 22.4116V33.3403H4.42577H7.85905L7.84622 22.3795L7.82697 11.4251L4.45144 11.4058C2.59683 11.3994 1.05667 11.4123 1.03741 11.4379Z" fill="#48B74A"/>
</g>
<defs>
<clipPath id="clip0">
<rect width="32.8568" height="32.8568" fill="white" transform="translate(0.479126 0.483398)"/>
</clipPath>
</defs>
</svg>
