<svg width="36" height="27" viewBox="0 0 36 27" fill="none" xmlns="http://www.w3.org/2000/svg">
<path d="M2.50326 0.834122C0.759267 1.25815 -0.335004 3.03634 0.102705 4.72562C0.239488 5.23856 0.492538 5.70363 0.834498 6.05926C1.14226 6.37387 15.7097 16.1197 16.2432 16.3591C17.0571 16.7284 18.0214 16.7147 18.8558 16.3249C19.5055 16.0171 33.7789 6.46278 34.1414 6.09346C35.8443 4.35631 34.9142 1.40177 32.4794 0.827283C31.8366 0.676821 3.13247 0.68366 2.50326 0.834122Z" fill="white"/>
<path d="M6.10352e-05 16.0734C6.10352e-05 21.6132 0.0205786 24.1505 0.0752921 24.4036C0.328342 25.6072 1.29951 26.5921 2.5374 26.8862C3.18029 27.0366 31.7202 27.0366 32.4383 26.8862C33.6831 26.6263 34.6884 25.6278 34.9415 24.4036C35.0304 23.9864 35.0509 8.08524 34.962 8.12627C34.9347 8.13311 31.6313 10.3353 27.6167 13.0163C23.6021 15.6973 20.1004 18.0021 19.8269 18.132C19.0746 18.515 18.4317 18.6586 17.5084 18.6586C16.5851 18.6586 15.9422 18.515 15.1899 18.132C14.9163 18.0021 11.4147 15.6973 7.40007 13.0163C3.38546 10.3353 0.0821313 8.13311 0.0547746 8.12627C0.0205786 8.1126 6.10352e-05 11.6895 6.10352e-05 16.0734Z" fill="white"/>
</svg>
